<?xml version="1.0" encoding="UTF-8" standalone="no"?><!DOCTYPE svg PUBLIC "-//W3C//DTD SVG 1.1//EN" "http://www.w3.org/Graphics/SVG/1.1/DTD/svg11.dtd"><svg width="100%" height="100%" viewBox="0 0 10 10" version="1.1" xmlns="http://www.w3.org/2000/svg" xmlns:xlink="http://www.w3.org/1999/xlink" xml:space="preserve" xmlns:serif="http://www.serif.com/" style="fill-rule:evenodd;clip-rule:evenodd;stroke-linejoin:round;stroke-miterlimit:2;"><path d="M4.778,0c1.299,0 1.461,0.005 1.97,0.029c0.509,0.024 0.856,0.103 1.16,0.222c0.316,0.121 0.581,0.286 0.847,0.551c0.243,0.239 0.431,0.528 0.551,0.847c0.118,0.304 0.198,0.651 0.222,1.16c0.023,0.509 0.029,0.671 0.029,1.969c-0,1.299 -0.005,1.461 -0.029,1.97c-0.024,0.509 -0.104,0.856 -0.222,1.16c-0.119,0.32 -0.308,0.609 -0.551,0.847c-0.239,0.243 -0.528,0.431 -0.847,0.551c-0.304,0.118 -0.651,0.198 -1.16,0.222c-0.509,0.023 -0.671,0.029 -1.97,0.029c-1.298,-0 -1.46,-0.005 -1.969,-0.029c-0.509,-0.024 -0.856,-0.104 -1.16,-0.222c-0.32,-0.12 -0.608,-0.308 -0.847,-0.551c-0.243,-0.239 -0.431,-0.528 -0.551,-0.847c-0.119,-0.304 -0.198,-0.651 -0.222,-1.16c-0.023,-0.509 -0.029,-0.671 -0.029,-1.97c-0,-1.298 0.005,-1.46 0.029,-1.969c0.024,-0.51 0.103,-0.856 0.222,-1.16c0.119,-0.32 0.308,-0.609 0.551,-0.847c0.239,-0.243 0.527,-0.431 0.847,-0.551c0.304,-0.119 0.65,-0.198 1.16,-0.222c0.509,-0.023 0.671,-0.029 1.969,-0.029Zm0,2.389c-1.31,0 -2.389,1.079 -2.389,2.389c0,1.311 1.079,2.39 2.389,2.39c1.311,-0 2.39,-1.079 2.39,-2.39c-0,-1.31 -1.079,-2.389 -2.39,-2.389Zm3.106,-0.119c0,-0.328 -0.269,-0.598 -0.597,-0.598c-0.328,0 -0.597,0.27 -0.597,0.598c-0,0.328 0.269,0.597 0.597,0.597c0.328,0 0.597,-0.269 0.597,-0.597Zm-3.106,1.075c0.787,-0 1.434,0.647 1.434,1.433c0,0.787 -0.647,1.434 -1.434,1.434c-0.786,0 -1.433,-0.647 -1.433,-1.434c-0,-0.786 0.647,-1.433 1.433,-1.433Z" style="fill:#ffae00;fill-rule:nonzero;"/></svg>