<?xml version="1.0" encoding="UTF-8" standalone="no"?><!DOCTYPE svg PUBLIC "-//W3C//DTD SVG 1.1//EN" "http://www.w3.org/Graphics/SVG/1.1/DTD/svg11.dtd"><svg width="100%" height="100%" viewBox="0 0 11 9" version="1.1" xmlns="http://www.w3.org/2000/svg" xmlns:xlink="http://www.w3.org/1999/xlink" xml:space="preserve" xmlns:serif="http://www.serif.com/" style="fill-rule:evenodd;clip-rule:evenodd;stroke-linejoin:round;stroke-miterlimit:2;"><path d="M3.899,4.308l-2.964,3.486c0.316,0.202 0.691,0.319 1.093,0.319l6.842,0c0.378,0 0.731,-0.103 1.034,-0.283l-2.965,-3.488l-1.281,0.723c-0.13,0.073 -0.288,0.073 -0.418,-0l-1.341,-0.757Zm6.999,-2.199l-3.205,1.808l2.836,3.335c0.232,-0.33 0.369,-0.732 0.369,-1.167l0,-3.976Zm-10.898,-0l-0,3.976c-0,0.409 0.121,0.79 0.33,1.109l2.815,-3.311l-3.145,-1.774Zm0.165,-0.883l3.84,2.166c0.004,0.002 0.008,0.004 0.012,0.007l1.432,0.808l5.284,-2.981c-0.311,-0.721 -1.028,-1.226 -1.863,-1.226l-6.842,0c-0.834,0 -1.552,0.505 -1.863,1.226Z" style="fill:#ffae00;"/></svg>